<?xml version="1.0" encoding="UTF-8"?>
<svg width="380px" height="249px" viewBox="0 0 380 249" version="1.1" xmlns="http://www.w3.org/2000/svg" xmlns:xlink="http://www.w3.org/1999/xlink">
    <!-- Generator: Sketch 61.2 (89653) - https://sketch.com -->
    <title>Combined Shape</title>
    <desc>Created with Sketch.</desc>
    <defs>
        <linearGradient x1="100%" y1="50%" x2="-23.9657993%" y2="50%" id="linearGradient-1">
            <stop stop-color="#D19935" offset="0%"></stop>
            <stop stop-color="#FBEBA7" offset="100%"></stop>
        </linearGradient>
    </defs>
    <g id="About-Us" stroke="none" stroke-width="1" fill="none" fill-rule="evenodd">
        <g id="About-Us-V2" transform="translate(-740.000000, -2037.000000)" fill="url(#linearGradient-1)" fill-rule="nonzero">
            <g id="Group-2" transform="translate(320.000000, 1971.000000)">
                <g id="award-copy-2" transform="translate(420.000000, 0.000000)">
                    <path d="M263.161711,298.583141 C266.767617,297.639858 270.51519,297.336042 274.229181,297.685902 C277.388583,297.877257 280.470785,298.726746 283.272114,300.178233 C289.273769,303.570965 294.337267,308.363755 298.017493,314.135286 C296.518609,312.976105 294.739641,312.220334 292.854923,311.942035 C290.058024,311.625154 287.224696,311.966835 284.588063,312.938967 C281.823136,313.872264 278.90299,314.278274 275.98378,314.135286 C272.516208,314.02696 269.135079,313.042865 266.164775,311.277413 C264.310429,310.120071 262.723951,308.591595 261.508339,306.791217 C259.984425,304.649273 258.843267,302.26667 258.134111,299.746228 C259.787483,299.247762 261.609566,299.048376 263.161711,298.583141 Z M116.791668,298.583507 C118.38159,299.048643 120.174482,299.247987 121.865889,299.746347 C121.207064,302.255475 120.120487,304.636953 118.652216,306.789836 C117.43351,308.58983 115.842996,310.117981 113.983932,311.275076 C111.00607,313.040152 107.616337,314.024038 104.139942,314.132341 C101.190764,314.283823 98.239399,313.877785 95.4461087,312.936277 C92.8027668,311.964352 89.9622294,311.622743 87.1582133,311.939556 C85.2686999,312.217796 83.4852054,312.973407 81.9825073,314.132341 C85.6435937,308.374024 90.6840437,303.583283 96.6639218,300.178259 C99.4723783,298.727081 102.562423,297.877774 105.729864,297.686459 C109.442099,297.335666 113.18829,297.63946 116.791668,298.583507 Z M189.42947,276.495627 L195.735066,287.903628 L208.279883,290.476352 L199.617986,300.090217 L201.111416,313.055394 L189.42947,307.60528 L177.780712,313.055394 L179.274142,300.090217 L170.612245,290.476352 L183.157062,287.903628 L189.42947,276.495627 Z M145.685131,293.113703 L149.215182,299.337335 L156.209913,300.738467 L151.372435,305.984565 L152.189577,313.055394 L145.685131,310.090208 L139.180686,313.055394 L140.030513,305.984565 L135.16035,300.738467 L142.187766,299.337335 L145.685131,293.113703 Z M234.314869,293.113703 L237.812234,299.337335 L244.83965,300.738467 L239.969487,305.984565 L240.819314,313.055394 L234.314869,310.090208 L227.810423,313.055394 L228.627565,305.984565 L223.790087,300.738467 L230.784818,299.337335 L234.314869,293.113703 Z M287.080282,290.925388 C293.039169,287.659606 299.958143,286.741513 306.532074,288.344287 C312.993018,290.368885 318.836216,294.064932 323.498542,299.07623 C321.816563,298.211333 319.942817,297.813212 318.06397,297.921527 C316.927663,298.053429 315.813395,298.338924 314.750207,298.770574 C313.25784,299.303004 311.815914,299.973693 310.442314,300.774322 C307.920342,302.192783 305.2228,303.255225 302.423007,303.932774 C299.088502,304.471822 295.676015,304.168718 292.481717,303.049766 C290.490934,302.292297 288.666357,301.138002 287.11342,299.653581 C285.242636,297.81522 283.685695,295.668533 282.507289,293.302717 C284.16417,292.521594 285.589089,291.604624 287.080282,290.925388 Z M92.9381276,291.036925 C94.423318,291.70951 95.8424999,292.617499 97.4927114,293.390972 C96.3190489,295.733618 94.7683758,297.859282 92.9051234,299.679639 C91.3584381,301.149521 89.541206,302.292512 87.5584381,303.042562 C84.3257216,304.178322 80.866888,304.478757 77.492148,303.916922 C74.7036262,303.246009 72.0169441,302.193972 69.5051243,300.789403 C68.1370541,299.996615 66.7009335,299.332494 65.2145744,298.805278 C64.1556661,298.377856 63.0458839,298.095157 61.9141514,297.964548 C60.0428686,297.857293 58.1766662,298.251515 56.5014577,299.107942 C61.1450147,294.145722 66.9646892,290.485873 73.3996235,288.481104 C79.4393976,286.665125 85.3471547,287.606743 92.9381276,291.036925 Z M105.75494,264.309038 C105.489692,265.957267 105.641483,267.644891 106.196721,269.220796 C107.102941,270.936207 108.633409,272.246901 110.478594,272.887793 C115.017886,274.892238 118.648772,278.486696 120.67353,282.980447 C121.501347,284.83546 122.116874,286.776355 122.508619,288.766901 C122.955445,291.298314 123.081022,293.875079 122.882433,296.437318 C121.187531,296.434851 119.49902,296.231552 117.852931,295.831759 C114.308474,295.05604 110.993536,293.47853 108.167742,291.22278 C106.037573,289.165139 104.490707,286.589692 103.68197,283.754217 C102.351253,277.214993 103.074658,270.429202 105.75494,264.309038 Z M274.254308,264.309038 C276.925487,270.429202 277.646435,277.214993 276.320237,283.754217 C275.475768,286.604083 273.886559,289.18096 271.714232,291.22278 C268.917717,293.469279 265.638222,295.046308 262.129675,295.831759 C260.489177,296.231552 258.806402,296.434851 257.117257,296.437318 C256.919342,293.875079 257.044493,291.298314 257.489801,288.766901 C257.880216,286.776355 258.493651,284.83546 259.318657,282.980447 C261.336538,278.486696 264.955091,274.892238 269.478964,272.887793 C271.343201,272.261649 272.89474,270.949215 273.814028,269.220796 C274.36738,267.644891 274.518655,265.957267 274.254308,264.309038 Z M289.804014,255.446064 C293.554818,260.793984 295.643058,267.15148 295.801749,273.705746 C295.187188,280.208874 290.943071,285.781318 284.881959,288.043223 C283.455536,288.827379 281.931698,289.414887 280.351061,289.790087 C279.666015,287.319771 279.28287,284.773894 279.210187,282.209353 C279.11686,280.187491 279.27013,278.161703 279.666537,276.177725 C280.15906,273.51032 281.276844,271.001181 282.926176,268.860668 C284.042511,267.164961 285.456632,265.690393 287.098513,264.509986 C287.984904,263.93422 288.767592,263.209688 289.412857,262.367604 C289.851847,261.680381 290.171541,260.922398 290.358152,260.126344 C290.568407,258.543974 290.377732,256.933532 289.804014,255.446064 Z M90.2196081,254.338192 C89.5932128,255.91199 89.3787535,257.62881 89.5978375,259.315679 C89.7851842,260.133489 90.1061373,260.912186 90.5468558,261.61819 C91.1946625,262.483287 91.9804332,263.227619 92.8703144,263.819119 C94.5186619,265.031785 95.938353,266.546651 97.0590847,268.288699 C98.7149119,270.487709 99.8370981,273.065419 100.331562,275.80572 C100.729529,277.843917 100.883403,279.925067 100.789708,282.002183 C100.716739,284.636809 100.332085,287.252261 99.6443414,289.790087 C98.0574792,289.404633 96.5276398,288.801069 95.0955986,287.995483 C88.9863463,285.624803 84.7437594,279.824437 84.1982507,273.096884 C84.3575675,266.3635 86.454031,259.832263 90.2196081,254.338192 Z M62.8030321,273.242434 C64.4243311,273.84654 65.9814885,274.615801 67.4507755,275.538495 C69.184815,276.567595 70.8499709,277.712419 72.435312,278.965451 C73.8319141,280.032241 75.169875,281.176283 76.4431487,282.392407 C73.5036956,286.254462 69.2509237,288.85818 64.5206764,289.691824 C58.0717616,290.301484 51.6774602,288.053603 46.9737609,283.523303 C41.484035,278.348599 38.116105,278.142981 34.3440233,278.965451 C40.0460734,275.041468 46.646625,272.680753 53.5075452,272.111538 C56.6475283,271.921384 59.7956196,272.304383 62.8030321,273.242434 Z M317.196968,273.242434 C320.20438,272.304383 323.352472,271.921384 326.492455,272.111538 C333.353375,272.680753 339.953927,275.041468 345.655977,278.965451 C341.883895,278.142981 338.515965,278.348599 333.026239,283.523303 C328.32254,288.053603 321.928238,290.301484 315.479324,289.691824 C310.749076,288.85818 306.496304,286.254462 303.556851,282.392407 C304.830125,281.176283 306.168086,280.032241 307.564688,278.965451 C309.150029,277.712419 310.815185,276.567595 312.549224,275.538495 C314.018512,274.615801 315.575669,273.84654 317.196968,273.242434 Z M76.4410778,242.151603 C74.2149544,245.132433 74.4954734,249.375357 77.092964,252.011559 C80.2681996,255.657847 82.0127542,260.409296 81.9821103,265.327582 C81.8937989,270.03658 80.648342,274.643842 78.364142,278.71137 C76.9587492,277.880077 75.6084958,276.951864 74.3224477,275.932964 C72.8258588,274.812721 71.4587086,273.516583 70.248159,272.0703 C69.2898024,270.729412 68.4703973,269.287027 67.8035858,267.767158 C66.5929207,265.060838 66.1953512,262.037927 66.662785,259.093108 C68.2308774,252.561545 71.6350541,246.663596 76.4410778,242.151603 Z M303.621168,242.151603 C308.397182,246.659418 311.780103,252.551906 313.338404,259.077421 C313.80292,262.019514 313.407832,265.039625 312.204727,267.74344 C311.542079,269.261901 310.72779,270.702951 309.775418,272.042598 C308.572427,273.487541 307.213813,274.782479 305.726569,275.901684 C304.412849,276.927109 303.038948,277.865509 301.612939,278.71137 C299.343002,274.647609 298.105322,270.044612 298.017493,265.339974 C298.004815,260.417165 299.762016,255.66897 302.940961,252.036281 C305.551196,249.4071 305.844552,245.144086 303.621168,242.151603 Z M342.381927,250.2607 C349.11269,249.345253 355.958836,250.21239 362.274052,252.780248 C358.507105,252.848344 355.136678,253.631447 351.039297,259.896268 C350.300283,261.039331 349.435404,262.090457 348.461912,263.028679 C347.352812,264.145691 346.159511,265.17034 344.893225,266.092994 C342.154684,268.268577 338.857969,269.57054 335.40977,269.838268 C330.66551,269.994159 326.03143,268.345949 322.390671,265.207748 C323.417465,263.783527 324.520628,262.419487 325.69501,261.121994 C327.14892,259.589837 328.404569,258.091727 329.726305,256.831953 C330.978971,255.644078 332.340072,254.583667 333.790643,253.665495 C336.44062,252.024746 339.347901,250.872567 342.381927,250.2607 Z M36.4770212,250.229557 C39.5160821,250.842397 42.428189,251.996407 45.0825641,253.639765 C46.5355428,254.559397 47.8989024,255.621494 49.1536479,256.811258 C50.4775776,258.073035 51.7353108,259.573526 53.1916335,261.10812 C54.3777459,262.398755 55.4832385,263.76558 56.5014577,265.200369 C52.8546554,268.34356 48.2128837,269.99439 43.4607503,269.838252 C40.005539,269.576029 36.7017512,268.271365 33.9615547,266.087024 C32.6931673,265.162902 31.4978857,264.136624 30.3869446,263.017836 C29.4118365,262.078122 28.5455226,261.025325 27.8052817,259.880445 C23.7010996,253.707969 20.3250789,252.923621 16.6180758,252.855417 C22.9148125,250.260414 29.7483607,249.356844 36.4770212,250.229557 Z M313.717524,226.641399 C319.398385,229.897586 323.962702,234.75011 326.825637,240.577205 C327.977416,243.288262 328.236051,246.286998 327.565069,249.150539 C327.22546,250.770488 326.671774,252.339625 325.918152,253.817875 C325.131248,255.523383 324.063754,257.089196 322.758761,258.45211 C321.651734,259.739856 320.461702,260.956098 319.196043,262.093294 C316.059698,258.729824 313.859815,254.624733 312.810039,250.176691 C312.289754,247.464274 312.289754,244.679893 312.810039,241.967475 C313.023459,240.831385 313.361547,239.721487 313.818356,238.657308 C314.255293,237.763563 314.69223,236.936021 315.028335,236.207784 C317.108302,233.150819 316.545853,229.046028 313.717524,226.641399 Z M65.1829862,226.641399 C62.3729254,229.046028 61.814109,233.150819 63.8806415,236.207784 C64.214576,236.936021 64.6486909,237.763563 65.0828058,238.657308 C65.5366635,239.721487 65.872568,240.831385 66.0846095,241.967475 C66.6015345,244.679893 66.6015345,247.464274 66.0846095,250.176691 C65.0416137,254.624733 62.8559402,258.729824 59.7398531,262.093294 C58.4566074,260.950295 57.2412738,259.734528 56.0999665,258.45211 C54.8034016,257.089196 53.7428034,255.523383 52.9609817,253.817875 C52.2122269,252.339625 51.6621175,250.770488 51.3247024,249.150539 C50.6580543,246.286998 50.9150185,243.288262 52.0593585,240.577205 C54.9406754,234.743106 59.5093622,229.891678 65.1829862,226.641399 Z M363.838997,224.581201 C367.379397,224.305989 370.938346,224.39616 374.460641,224.850314 C372.621593,225.242465 370.906325,226.085814 369.466138,227.305971 C367.399632,229.183897 365.831402,231.554652 364.904491,234.201993 C364.377776,235.442529 363.788769,236.655113 363.139766,237.835019 C362.285306,239.162377 361.303894,240.401759 360.209658,241.535324 C357.903052,244.07319 355.008259,245.992074 351.785595,247.11942 C347.105018,248.275345 342.167751,247.665296 337.900875,245.403824 C338.629095,243.835812 339.440493,242.30862 340.331533,240.828902 C341.879999,237.454031 344.06249,234.415102 346.757794,231.880893 C348.913455,229.619433 351.52523,227.852694 354.416033,226.700467 C357.430265,225.508051 360.608731,224.7932 363.838997,224.581201 Z M16.161003,224.581201 C19.4020147,224.793502 22.5914067,225.508285 25.6172633,226.700467 C28.4976069,227.854126 31.0982204,229.620997 33.2422055,231.880893 C35.9375096,234.415102 38.1200011,237.454031 39.6684669,240.828902 C40.5595072,242.30862 41.3709051,243.835812 42.0991254,245.403824 C37.8322493,247.665296 32.8949815,248.275345 28.2144052,247.11942 C24.9917413,245.992074 22.0969481,244.07319 19.7903424,241.535324 C18.7525554,240.395336 17.8269888,239.156066 17.026717,237.835019 C16.354474,236.662258 15.7540079,235.448975 15.2286957,234.201993 C14.2639036,231.540379 12.6489594,229.168263 10.5338623,227.305971 C9.0936751,226.085814 7.37840701,225.242465 5.5393586,224.850314 C9.06165365,224.39616 12.6206029,224.305989 16.161003,224.581201 Z M321.282799,210.023324 C324.699455,211.276142 327.968626,212.895137 331.032461,214.85166 C333.582037,216.447495 335.769198,218.553638 337.454594,221.035899 C339.076224,223.490381 339.996342,226.336648 340.116618,229.270528 C339.931837,232.729448 339.013319,236.11046 337.421319,239.191767 C336.565314,240.605298 335.620647,241.963886 334.592918,243.259475 C330.790517,240.646972 327.758064,237.073773 325.808239,232.908316 C324.50096,230.449268 323.794225,227.719005 323.745171,224.938253 C323.77622,223.829394 323.887425,222.724186 324.077924,221.631174 C324.165561,220.712085 324.343886,219.803783 324.610329,218.919368 C325.289119,217.117453 325.289119,215.132319 324.610329,213.330403 C323.805338,211.962316 322.659346,210.823367 321.282799,210.023324 Z M58.7172012,210.023324 C57.3184113,210.825762 56.1539024,211.968121 55.3359051,213.340305 C54.6461466,215.147615 54.6461466,217.138692 55.3359051,218.946003 C55.6066525,219.833065 55.7878595,220.744087 55.8769124,221.665928 C56.0704898,222.762213 56.1834908,223.870729 56.2150421,224.982909 C56.1912907,227.727607 55.5200448,230.429638 54.2538903,232.877324 C52.3194405,237.035302 49.2980288,240.617209 45.4963334,243.259475 C44.4519988,241.960007 43.4920675,240.597351 42.6222318,239.179588 C41.0045084,236.089056 40.0711488,232.697921 39.8833819,229.228645 C40.0056013,226.285981 40.9405867,223.431192 42.5884188,220.969362 C44.3010473,218.479669 46.523549,216.36722 49.1143203,214.766607 C52.1358123,212.857739 55.3546854,211.267796 58.7172012,210.023324 Z M380,194.51312 C376.630371,196.16607 374.251809,198.358759 372.732173,205.712703 C372.227045,208.609739 371.232154,211.394944 369.792006,213.943721 C368.043667,216.931667 365.590514,219.425063 362.656321,221.196463 C358.437546,223.423648 353.544226,223.918493 348.979592,222.579545 C349.210841,221.668735 349.475126,220.825393 349.673339,219.982051 C349.871552,219.138709 350.03673,218.3291 350.234944,217.553226 C350.712668,215.633198 351.353794,213.759474 352.151007,211.953434 C352.910826,210.300484 353.835822,208.782468 354.59564,207.399387 C356.229237,204.703862 358.415767,202.402072 361.004542,200.65265 C362.317535,199.764725 363.698491,198.98633 365.13399,198.325026 C366.576253,197.619625 368.066773,197.022092 369.593793,196.537141 C372.985897,195.502026 376.472769,194.823825 380,194.51312 Z M0,194.51312 C3.52061268,194.820458 7.00057435,195.498803 10.3842305,196.537308 C11.9257478,197.01602 13.4293021,197.613759 14.8818589,198.325342 C16.3188883,198.9867 17.7013158,199.765161 19.0157086,200.653159 C21.6072439,202.402726 23.7961054,204.704706 25.4314434,207.400455 C26.1920717,208.78365 27.118054,210.301792 27.8786824,211.95488 C28.6654485,213.762169 29.296184,215.636023 29.7637179,217.555135 C29.9621426,218.331074 30.1274966,219.14075 30.3259214,219.984162 C30.5243462,220.827574 30.7889126,221.670986 31.0204082,222.581871 C26.4506001,223.917463 21.5533388,223.422706 17.329098,221.198675 C14.3917772,219.427127 11.9360089,216.933525 10.1858057,213.945332 C8.74263313,211.379213 7.76779492,208.56729 7.30864627,205.646158 C5.75431879,198.359078 3.30707976,196.166207 0,194.51312 Z M55.393586,191.189504 C51.6337717,192.093843 49.2687714,195.708101 50.0217883,199.398834 C50.1498567,201.430384 49.9653463,203.469129 49.474344,205.447813 C48.940194,208.142444 47.7688967,210.679691 46.0528168,212.859475 C43.1181344,216.457211 39.3086094,219.2897 34.9670687,221.102041 C34.5222702,220.304373 34.1801175,219.506706 33.8379648,218.77551 C33.5642426,217.977843 33.358951,217.213411 33.1536593,216.44898 C32.6712226,214.628909 32.3507008,212.771931 32.1956317,210.898542 C32.0261921,209.279274 32.1771711,207.643468 32.6404302,206.0793 C33.3781905,203.231059 34.9046221,200.633372 37.0542003,198.56793 C38.0816622,197.552468 39.2303067,196.659848 40.4757275,195.909038 C41.8742604,195.083939 43.3525624,194.39377 44.8894976,193.848397 C48.2902976,192.622444 51.8093507,191.731668 55.393586,191.189504 Z M323.498542,191.189504 C327.088632,191.73169 330.613848,192.622436 334.021371,193.848397 C335.5532,194.400319 337.028702,195.090195 338.428659,195.909038 C339.672251,196.659848 340.819209,197.552468 341.845162,198.56793 C343.991583,200.633372 345.515773,203.231059 346.25245,206.0793 C346.715029,207.643468 346.865786,209.279274 346.696595,210.898542 C346.541754,212.771931 346.221703,214.628909 345.739975,216.44898 C345.534985,217.213411 345.329994,217.977843 345.056674,218.77551 C344.749189,219.506706 344.373374,220.304373 344.031723,221.102041 C339.65938,219.303916 335.818834,216.470399 332.85976,212.859475 C331.1462,210.679691 329.976623,208.142444 329.443257,205.447813 C328.952976,203.469129 328.768736,201.430384 328.896617,199.398834 C329.646162,195.697898 327.266655,192.079171 323.498542,191.189504 Z M323.498542,173.582377 C327.022556,173.336981 330.562525,173.47194 334.058032,173.984952 C337.064006,174.41885 339.952665,175.457046 342.552258,177.037813 C345.091474,178.544335 347.10473,180.806333 348.315008,183.512562 C349.771146,186.758712 350.345884,190.335884 349.980543,193.87887 C349.961325,195.584198 349.760309,197.282515 349.38095,198.944606 C344.836751,198.073912 340.578623,196.079551 336.989373,193.140816 C334.85154,191.334992 333.18236,189.03216 332.126012,186.431231 C331.19159,184.589986 330.614976,182.585932 330.427166,180.526797 C330.257325,176.751744 327.247676,173.735234 323.498542,173.582377 Z M377.784257,164.600583 C374.918761,166.969081 372.712001,169.6421 373.107241,177.221294 C373.105912,180.164692 372.695553,183.092821 371.888582,185.917066 C370.766948,189.218866 368.865747,192.18338 366.355212,194.545166 C362.739174,197.64069 358.109469,199.201841 353.411079,198.909969 L353.411079,198.909969 L353.411079,193.699274 C353.631074,189.977215 354.374368,186.307469 355.617839,182.804183 C356.68625,179.842136 358.283602,177.111046 360.327791,174.751289 C362.530905,172.376883 365.088084,170.378099 367.903239,168.830044 C371.053951,167.090808 374.363558,165.674167 377.784257,164.600583 Z M1.10787172,164.600583 C4.47436268,165.678162 7.72895554,167.094866 10.8242061,168.830044 C13.6393604,170.378099 16.1965399,172.376883 18.3996533,174.751289 C20.502651,177.097088 22.1563981,179.829077 23.2742889,182.804183 C24.5177602,186.307469 25.2610538,189.977215 25.4810496,193.699274 L25.4810496,198.909969 L25.4810496,198.909969 C20.7826589,199.201841 16.1529545,197.64069 12.5369159,194.545166 C10.0412884,192.156664 8.16250005,189.168548 7.06941927,185.849394 C6.26244921,183.02515 5.85208988,180.09702 5.85076038,177.153623 C6.18012765,169.6421 3.97336695,166.969081 1.10787172,164.600583 Z M56.5014577,172.474506 C52.7539443,172.627362 49.7455965,175.643872 49.5758281,179.418926 C49.3880992,181.47806 48.8117347,183.482114 47.877717,185.32336 C46.8218247,187.924289 45.1533661,190.227121 43.0164578,192.032944 C39.4001273,194.986743 35.107748,196.981925 30.5303467,197.836735 C30.1940826,196.214863 30.0266949,194.562066 30.0309023,192.90519 C29.6416178,189.317943 30.2166214,185.691218 31.6957171,182.404691 C32.9054723,179.698462 34.9178584,177.436464 37.4559763,175.929942 C40.0520787,174.344152 42.9405333,173.30558 45.9465318,172.877081 C49.4405284,172.364068 52.978967,172.229109 56.5014577,172.474506 Z M329.535908,153.612212 C332.643204,153.330852 335.775027,153.708432 338.725607,154.720145 C341.537014,155.667347 343.999275,157.433191 345.794607,159.789775 C346.790719,161.108046 347.626864,162.539292 348.285588,164.053636 C348.954131,165.835264 349.439117,167.680134 349.73305,169.559725 C350.021756,171.210721 350.13459,172.88754 350.069669,174.562208 C345.395952,174.682073 340.766652,173.631666 336.604907,171.507 C332.294915,169.188816 328.997496,165.361871 327.347884,160.763413 C326.389193,157.117553 322.79006,154.811971 319.067055,155.458766 C322.483626,154.485413 325.991857,153.866612 329.535908,153.612212 Z M50.4554161,153.619255 C54.0024044,153.873569 57.5135421,154.492162 60.9329446,155.465188 C57.2068549,154.81861 53.6047386,157.123418 52.6452533,160.768052 C50.9914636,165.352928 47.7070363,169.174254 43.4142475,171.50803 C39.2490537,173.631982 34.6159167,174.682035 29.9383266,174.562211 C29.8564982,172.88791 29.9695504,171.209801 30.2752246,169.561409 C30.5532619,167.679133 31.0390933,165.8332 31.7238861,164.05717 C32.3995493,162.516693 33.2592309,161.063014 34.2843111,159.727617 C36.081131,157.371825 38.5454326,155.606574 41.3591695,154.65969 C44.2853221,153.685088 47.3836835,153.330695 50.4554161,153.619255 Z M371.137026,134.688047 C368.61272,137.657799 367.214117,140.695045 369.022067,148.018183 C370.747514,154.279431 369.653033,160.972907 366.020188,166.376649 C362.964388,170.172595 358.583916,172.700524 353.739778,173.463557 C353.364543,171.708703 353.125757,169.95385 352.818747,168.333985 C352.500765,166.381131 352.341066,164.406258 352.341175,162.428229 C352.239388,160.712377 352.342436,158.990637 352.648186,157.298657 C353.125511,154.173118 354.214712,151.169749 355.854737,148.456896 C357.563308,145.658288 359.691099,143.132265 362.165504,140.965022 C364.937088,138.582139 367.942541,136.479356 371.137026,134.688047 Z M8.86297376,134.688047 C12.0361623,136.471133 15.0174701,138.574484 17.7600122,140.965022 C20.2445875,143.104281 22.3890008,145.607628 24.1198723,148.389402 C25.8021269,151.094616 26.9503768,154.09575 27.5027766,157.231163 C27.7213284,158.932411 27.7553541,160.652209 27.6042638,162.360735 C27.5744636,164.364038 27.3821374,166.361646 27.02917,168.333985 C26.7247086,169.95385 26.4879053,171.708703 26.1157859,173.463557 C21.3152134,172.691183 16.9742626,170.16509 13.9373303,166.376649 C10.3346466,160.972907 9.24925198,154.279431 10.9603744,148.018183 C12.7533137,140.695045 11.366323,137.657799 8.86297376,134.688047 Z M310.204082,138.535802 C315.862914,135.036144 322.43282,133.321246 329.068165,133.611839 C331.985597,133.970019 334.746611,135.137705 337.042679,136.984416 C338.329808,138.040767 339.458371,139.278955 340.393316,140.660525 C341.528084,142.174462 342.442001,143.843913 343.107331,145.618214 C343.711522,147.185628 344.193242,148.798121 344.548105,150.440999 C340.06329,151.594497 335.362323,151.594497 330.877508,150.440999 C326.153981,149.1338 322.067183,146.135579 319.384825,142.009556 C318.474814,140.237948 316.891687,138.912064 314.995492,138.333447 C313.409351,137.965823 311.754053,138.035731 310.204082,138.535802 Z M69.7959184,138.535802 C68.2368208,138.035731 66.5717763,137.965823 64.9762959,138.333447 C63.0869725,138.888117 61.4974286,140.175157 60.5611172,141.908379 C57.9490913,146.050338 53.9067437,149.087089 49.2029858,150.440999 C44.6917639,151.594497 39.963117,151.594497 35.451895,150.440999 C35.8423465,148.876364 36.3493183,147.343177 36.9685595,145.854294 C37.5331636,144.01301 38.3619299,142.263506 39.4289262,140.660525 C40.3693765,139.278955 41.5045843,138.040767 42.7992916,136.984416 C45.108879,135.137705 47.8861506,133.970019 50.8207612,133.611839 C57.4951755,133.321246 64.1037663,135.036144 69.7959184,138.535802 Z M356.644505,108.099125 C355.674023,109.763709 355.132025,111.632029 355.064782,113.544581 C355.094715,114.676959 355.279495,115.800419 355.614251,116.885352 C356.134351,118.387732 356.742041,119.860058 357.434366,121.295169 C360.513238,126.991411 360.901605,133.706563 358.498962,139.702814 C356.376439,143.963822 352.705886,147.308391 348.196423,149.090379 C347.406562,147.419994 346.78841,146.350947 346.101574,144.346485 C345.414738,142.342023 344.762244,140.504599 344.3158,138.767398 C343.897526,137.089704 343.633201,135.379195 343.525939,133.656019 C343.257986,130.577354 343.61982,127.477553 344.590535,124.535716 C347.121267,118.156646 351.267528,112.502874 356.644505,108.099125 Z M22.2191591,108.099125 C27.5513019,112.502874 31.6629915,118.156646 34.1726226,124.535716 C35.192815,127.466203 35.609542,130.566275 35.3986189,133.656019 C35.2922513,135.379195 35.0301304,137.089704 34.6153435,138.767398 C34.1726226,140.504599 33.5255691,142.342023 32.84446,144.346485 C32.163351,146.350947 31.5503529,147.419994 30.7670775,149.090379 C26.2313873,147.343161 22.5261965,143.994455 20.3801647,139.702814 C17.9975545,133.706563 18.3826833,126.991411 21.4358837,121.295169 C22.1224359,119.860058 22.7250592,118.387732 23.2408226,116.885352 C23.5727875,115.800419 23.7560264,114.676959 23.7857099,113.544581 C23.7190279,111.632029 23.181549,109.763709 22.2191591,108.099125 Z M63.7587904,115.926586 C70.197676,117.01329 76.1579544,119.959023 80.8746356,124.385705 C79.4613289,123.613126 77.8759857,123.191845 76.2576446,123.15881 C74.3302187,123.36908 72.5533624,124.279193 71.27789,125.709461 C69.8884627,127.12427 68.2594851,128.293066 66.463028,129.164139 C64.047027,130.455921 61.363669,131.195474 58.6141433,131.327349 C54.0542222,131.566808 49.5088898,130.643436 45.4227405,128.647552 C46.0887982,127.179797 46.8717021,125.765586 47.7642145,124.417992 C48.8212062,122.919054 50.037183,121.533781 51.3918503,120.285293 C52.5709717,119.190908 53.9035368,118.266808 55.3492711,117.540922 C57.9286417,116.20307 60.854365,115.641433 63.7587904,115.926586 Z M316.24121,115.924981 C319.145449,115.643666 322.070039,116.205144 324.650729,117.539484 C326.096463,118.265446 327.429028,119.189642 328.60815,120.284141 C329.962817,121.532759 331.178794,122.918176 332.235785,124.41727 C333.128298,125.765004 333.911202,127.179362 334.577259,128.647269 C330.49111,130.643361 325.945778,131.566829 321.385857,131.327345 C318.636331,131.195456 315.952973,130.455826 313.536972,129.16391 C311.740515,128.292747 310.111537,127.123829 308.72211,125.708873 C307.446638,124.278456 305.669781,123.368248 303.742355,123.157957 C302.124014,123.190996 300.538671,123.61232 299.125364,124.38498 C303.842046,119.957837 309.802324,117.011798 316.24121,115.924981 Z M338.078035,84.8338192 C337.129693,88.4989987 337.064291,91.8615486 341.609791,97.7123855 C343.352874,100.033066 344.732113,102.619886 345.697471,105.378999 C346.788882,108.618831 347.04796,112.093608 346.449604,115.466649 C345.300589,120.154313 342.504882,124.238791 338.601258,126.932945 C337.489409,125.453423 336.60647,124.041152 335.756233,122.662506 C334.653062,121.048898 333.690107,119.338612 332.878506,117.55143 C332.145412,116.0125 331.533038,114.415815 331.047225,112.776609 C330.233372,109.758908 329.967318,106.612826 330.262391,103.495971 C331.296251,96.6973297 333.984749,90.2777496 338.078035,84.8338192 Z M41.9111078,84.8338192 C46.0035434,90.2544547 48.702407,96.6594988 49.7558947,103.451361 C50.0289448,106.600235 49.7321224,109.774189 48.8806499,112.810449 C48.3849696,114.440608 47.7783445,116.032392 47.0653273,117.573856 C46.2607989,119.356765 45.3062348,121.062964 44.2126775,122.672714 C43.3374327,124.048064 42.4946044,125.456959 41.3600277,126.932945 C37.4825884,124.246613 34.7004794,120.173044 33.5476574,115.494059 C32.9545156,112.129081 33.2113366,108.66261 34.2932363,105.430523 C35.2608886,102.638503 36.650457,100.023021 38.4101286,97.6816001 C42.9160185,91.8447493 42.8511856,88.4902373 41.9111078,84.8338192 Z M299.549568,101.01301 C302.328525,100.182152 305.274736,100.124142 308.083063,100.844987 C309.626025,101.326589 311.107927,101.992076 312.498076,102.827664 C314.115069,103.786471 315.590468,104.974481 316.880141,106.356158 C318.094059,107.487963 319.197486,108.737186 320.174927,110.086281 C316.609578,112.993125 312.382476,114.934976 307.885376,115.731871 C306.440082,115.895013 304.981553,115.895013 303.536259,115.731871 C302.267966,115.634648 301.010855,115.420953 299.780203,115.093382 C297.860558,114.503743 296.030833,113.644159 294.343807,112.539424 C292.797467,111.325174 290.844057,110.781805 288.90741,111.027212 C287.356521,111.389906 285.918513,112.140567 284.723032,113.211518 C288.379794,107.745092 293.537582,103.501531 299.549568,101.01301 Z M81.0555126,101.01301 C87.2867159,103.526411 92.6227056,107.819383 96.3848397,113.345937 C95.1542872,112.274986 93.6740929,111.524325 92.0777057,111.161631 C90.0842443,110.916224 88.0735269,111.459593 86.481823,112.673843 C84.7364863,113.784553 82.8410209,114.644431 80.8520259,115.2278 C79.5708635,115.516983 78.2650241,115.685754 76.9518653,115.731871 C75.4641714,115.895013 73.962853,115.895013 72.4751592,115.731871 C67.8461293,114.934976 63.4950179,112.993125 59.8250729,110.086281 C60.8311884,108.737186 61.9669871,107.487963 63.2165169,106.356158 C64.5440251,104.974481 66.0627071,103.786471 67.7271375,102.827664 C69.1580691,101.992076 70.6834454,101.326589 72.2716725,100.844987 C75.1623867,100.124142 78.1950301,100.182152 81.0555126,101.01301 Z M314.148813,66 C313.981478,67.8806891 314.281655,69.7735723 315.022647,71.5102997 C316.355617,73.9483035 318.187981,76.0778163 320.400092,77.7597859 C322.681606,79.5841741 324.616835,81.803359 326.113628,84.3116666 C326.98097,85.7546916 327.690828,87.2866434 328.230997,88.8811834 C328.775757,90.5746396 329.048021,92.3438459 329.037613,94.122688 C328.923355,98.93471 327.003941,103.527989 323.660168,106.991254 C322.282198,105.848874 321.341145,105.143287 319.828739,103.631315 C318.316332,102.119342 317.039189,100.640969 315.862873,99.2633944 C314.791855,97.9024945 313.857496,96.439461 313.073324,94.8954739 C311.528272,92.1321497 310.578101,89.0764517 310.283774,85.9244372 C309.85164,79.062136 311.182138,72.2033621 314.148813,66 Z M65.8721931,66 C68.8230703,72.2033621 70.1464835,79.062136 69.7166504,85.9244372 C69.3929537,89.0839259 68.4135425,92.1400573 66.841665,94.8954739 C66.061668,96.439461 65.1322848,97.9024945 64.0669697,99.2633944 C62.8969175,100.640969 61.6265751,102.119342 60.1222223,103.631315 C58.6178695,105.143287 57.6818277,105.848874 56.3111951,106.991254 C52.985228,103.527989 51.0760349,98.93471 50.962385,94.122688 C50.9520332,92.3438459 51.2228471,90.5746396 51.7647065,88.8811834 C52.3019988,87.2866434 53.0080766,85.7546916 53.8708005,84.3116666 C55.3596227,81.803359 57.2845468,79.5841741 59.5539112,77.7597859 C61.7542429,76.0778163 63.5768502,73.9483035 64.9027213,71.5102997 C65.6740487,69.7822983 66.0071399,67.8890688 65.8721931,66 Z M266.997085,71.2783824 C289.321258,67.847675 304.639798,74.5425505 310.204082,96.8254942 C310.204082,96.8254942 282.583782,106.851153 266.997085,71.2783824 Z M113.002915,71.2783824 C97.4162175,106.851153 69.7959184,96.8254942 69.7959184,96.8254942 C75.3602019,74.5425505 90.6452218,67.847675 113.002915,71.2783824 Z" id="Combined-Shape"></path>
                </g>
            </g>
        </g>
    </g>
</svg>